{
  "asset": {
    "generator": "Khronos glTF Blender I/O v1.4.40",
    "version": "2.0"
  },
  "scene": 0,
  "scenes": [
    {
      "name": "Scene",
      "nodes": [
        0
      ]
    }
  ],
  "nodes": [
    {
      "mesh": 0,
      "name": "WomenNormalDress.001",
      "rotation": [
        0,
        -1,
        0,
        1.9470718370939721e-7
      ],
      "scale": [
        0.0005459488602355123,
        0.0005459488602355123,
        0.0005459488602355123
      ]
    }
  ],
  "materials": [
    {
      "doubleSided": true,
      "name": "FABRIC 2_FRONT_2580109",
      "normalTexture": {
        "index": 0,
        "texCoord": 0
      },
     
      "pbrMetallicRoughness": {
        "baseColorTexture": {
          "index": 1,
          "texCoord": 0
        },
        "metallicFactor": 0,
        "metallicRoughnessTexture": {
          "index": 2,
          "texCoord": 0
        }
      }
    },
    {
      "doubleSided": true,
      "name": "Material.001",
      "pbrMetallicRoughness": {
        "baseColorFactor": [
          0.800000011920929,
          0.800000011920929,
          0.800000011920929,
          1
        ],
        "metallicFactor": 0,
        "roughnessFactor": 0.5
      }
    }
  ],
  "meshes": [
    {
      "name": "WomenNormalDress.001",
      "primitives": [
        {
          "attributes": {
            "POSITION": 0,
            "NORMAL": 1,
            "TEXCOORD_0": 2
          },
          "indices": 3,
          "material": 0
        },
        {
          "attributes": {
            "POSITION": 4,
            "NORMAL": 5,
            "TEXCOORD_0": 6
          },
          "indices": 7,
          "material": 1
        }
      ]
    }
  ],
  "textures": [
    {
      "sampler": 0,
      "source": 0
    },
    {
      "sampler": 0,
      "source": 1
    },
    {
      "sampler": 0,
      "source": 2
    }
  ],
  "images": [
    {
      "name": "FabricUpholsteryMidCenturyPebbles001_NRM_1K",
      "uri": "data:image/jpeg;base64,"
    },
    {
      "name": "FabricUpholsteryMidCenturyPebbles001_COL_VAR1_1K",
      "uri": "data:image/jpeg;base64,"
    },
    {
      "name": "FabricUpholsteryMidCenturyPebbles001_REFL_1K",
      "uri": "data:image/png;base64,"
    }
  ],
  "accessors": [
    {
      "bufferView": 0,
      "componentType": 5126,
      "count": 3983,
      "max": [
        228.23760986328125,
        1524.513916015625,
        156.20608520507812
      ],
      "min": [
        -215.4404754638672,
        559.5693359375,
        -153.2178192138672
      ],
      "type": "VEC3"
    },
    {
      "bufferView": 1,
      "componentType": 5126,
      "count": 3983,
      "type": "VEC3"
    },
    {
      "bufferView": 2,
      "componentType": 5126,
      "count": 3983,
      "type": "VEC2"
    },
    {
      "bufferView": 3,
      "componentType": 5123,
      "count": 22485,
      "type": "SCALAR"
    },
    {
      "bufferView": 4,
      "componentType": 5126,
      "count": 116,
      "max": [
        125.83786010742188,
        1164.8466796875,
        74.91796875
      ],
      "min": [
        -125.85575103759766,
        1120.4051513671875,
        -119.85867309570312
      ],
      "type": "VEC3"
    },
    {
      "bufferView": 5,
      "componentType": 5126,
      "count": 116,
      "type": "VEC3"
    },
    {
      "bufferView": 6,
      "componentType": 5126,
      "count": 116,
      "type": "VEC2"
    },
    {
      "bufferView": 7,
      "componentType": 5123,
      "count": 444,
      "type": "SCALAR"
    }
  ],
  "bufferViews": [
    {
      "buffer": 0,
      "byteLength": 47796,
      "byteOffset": 0
    },
    {
      "buffer": 0,
      "byteLength": 47796,
      "byteOffset": 47796
    },
    {
      "buffer": 0,
      "byteLength": 31864,
      "byteOffset": 95592
    },
    {
      "buffer": 0,
      "byteLength": 44972,
      "byteOffset": 127456
    },
    {
      "buffer": 0,
      "byteLength": 1392,
      "byteOffset": 172428
    },
    {
      "buffer": 0,
      "byteLength": 1392,
      "byteOffset": 173820
    },
    {
      "buffer": 0,
      "byteLength": 928,
      "byteOffset": 175212
    },
    {
      "buffer": 0,
      "byteLength": 888,
      "byteOffset": 176140
    }
  ],
  "samplers": [
    {
      "magFilter": 9729,
      "minFilter": 9986
    }
  ],
  "buffers": [
    {
      "uri": "data:application/octet-stream;base64,",
      "byteLength": 177028
    }
  ]
}